<mxfile host="app.diagrams.net" modified="2023-10-14T07:27:07.206Z" agent="Mozilla/5.0 (Windows NT 10.0; Win64; x64) AppleWebKit/537.36 (KHTML, like Gecko) Chrome/116.0.0.0 Safari/537.36 OPR/102.0.0.0 (Edition Yx 05)" etag="gRGAHsLdng9Bdjd2lzAA" version="22.0.4" type="google">
  <diagram name="Page-1" id="uQS9ek2D7PSYEIglThoV">
    <mxGraphModel grid="1" page="1" gridSize="10" guides="1" tooltips="1" connect="1" arrows="1" fold="1" pageScale="1" pageWidth="827" pageHeight="1169" math="0" shadow="0">
      <root>
        <mxCell id="0" />
        <mxCell id="1" parent="0" />
        <mxCell id="dizJsGSTC7KCC1AmDQVS-144" value="" style="rounded=0;whiteSpace=wrap;html=1;" vertex="1" parent="1">
          <mxGeometry x="710" y="-980" width="1140" height="180" as="geometry" />
        </mxCell>
        <mxCell id="zd0dRC9yfDdlV3mLB25J-2" value="&lt;h1 style=&quot;font-size: 20px;&quot;&gt;&lt;font style=&quot;font-size: 20px;&quot;&gt;Заметка для ревьюера&lt;/font&gt;&lt;/h1&gt;&lt;p style=&quot;font-size: 20px;&quot;&gt;&lt;font style=&quot;font-size: 20px;&quot;&gt;Текст заметки&lt;/font&gt;&lt;/p&gt;" style="text;html=1;strokeColor=#d6b656;fillColor=#fff2cc;spacing=5;spacingTop=-20;whiteSpace=wrap;overflow=hidden;rounded=0;fontSize=20;" vertex="1" parent="1">
          <mxGeometry x="70" y="-210" width="370" height="170" as="geometry" />
        </mxCell>
        <mxCell id="zd0dRC9yfDdlV3mLB25J-3" value="&lt;h1 style=&quot;font-size: 20px;&quot;&gt;&lt;font style=&quot;font-size: 20px;&quot;&gt;Заметка для ревьюера&lt;/font&gt;&lt;/h1&gt;&lt;p style=&quot;font-size: 20px;&quot;&gt;&lt;font style=&quot;font-size: 20px;&quot;&gt;Текст заметки&lt;/font&gt;&lt;/p&gt;" style="text;html=1;strokeColor=#d6b656;fillColor=#fff2cc;spacing=5;spacingTop=-20;whiteSpace=wrap;overflow=hidden;rounded=0;fontSize=20;" vertex="1" parent="1">
          <mxGeometry x="80" y="-200" width="370" height="170" as="geometry" />
        </mxCell>
        <mxCell id="zd0dRC9yfDdlV3mLB25J-4" value="&lt;h1 style=&quot;font-size: 20px;&quot;&gt;&lt;font style=&quot;font-size: 20px;&quot;&gt;Заметка для ревьюера&lt;/font&gt;&lt;/h1&gt;&lt;p style=&quot;font-size: 20px;&quot;&gt;&lt;font style=&quot;font-size: 20px;&quot;&gt;Текст заметки&lt;/font&gt;&lt;/p&gt;" style="text;html=1;strokeColor=#d6b656;fillColor=#fff2cc;spacing=5;spacingTop=-20;whiteSpace=wrap;overflow=hidden;rounded=0;fontSize=20;" vertex="1" parent="1">
          <mxGeometry x="90" y="-190" width="370" height="170" as="geometry" />
        </mxCell>
        <mxCell id="zd0dRC9yfDdlV3mLB25J-5" value="&lt;h1 style=&quot;font-size: 20px;&quot;&gt;&lt;font style=&quot;font-size: 20px;&quot;&gt;Заметка для ревьюера&lt;/font&gt;&lt;/h1&gt;&lt;p style=&quot;font-size: 20px;&quot;&gt;&lt;font style=&quot;font-size: 20px;&quot;&gt;Текст заметки&lt;/font&gt;&lt;/p&gt;" style="text;html=1;strokeColor=#d6b656;fillColor=#fff2cc;spacing=5;spacingTop=-20;whiteSpace=wrap;overflow=hidden;rounded=0;fontSize=20;" vertex="1" parent="1">
          <mxGeometry x="100" y="-180" width="370" height="170" as="geometry" />
        </mxCell>
        <mxCell id="oFbbETFREsKXqKu5l48W-3" value="&lt;span style=&quot;background-color: rgb(255, 255, 255);&quot;&gt;Пользователь&lt;/span&gt;" style="shape=umlLifeline;participant=umlActor;perimeter=lifelinePerimeter;whiteSpace=wrap;html=1;container=1;collapsible=0;recursiveResize=0;verticalAlign=top;spacingTop=36;outlineConnect=0;movable=1;resizable=1;rotatable=1;deletable=1;editable=1;locked=0;connectable=1;" vertex="1" parent="1">
          <mxGeometry x="910" y="-1060" width="20" height="1060" as="geometry" />
        </mxCell>
        <mxCell id="oFbbETFREsKXqKu5l48W-7" value="Otium:UI&amp;nbsp;" style="shape=umlLifeline;perimeter=lifelinePerimeter;whiteSpace=wrap;html=1;container=0;collapsible=0;recursiveResize=0;outlineConnect=0;movable=1;resizable=1;rotatable=1;deletable=1;editable=1;locked=0;connectable=1;" vertex="1" parent="1">
          <mxGeometry x="1076" y="-1060" width="124" height="1060" as="geometry" />
        </mxCell>
        <mxCell id="oFbbETFREsKXqKu5l48W-8" value=":Пользователь&amp;nbsp;" style="shape=umlLifeline;perimeter=lifelinePerimeter;whiteSpace=wrap;html=1;container=0;collapsible=0;recursiveResize=0;outlineConnect=0;movable=1;resizable=1;rotatable=1;deletable=1;editable=1;locked=0;connectable=1;" vertex="1" parent="1">
          <mxGeometry x="1440" y="-1060" width="130" height="1060" as="geometry" />
        </mxCell>
        <mxCell id="oFbbETFREsKXqKu5l48W-9" value="&lt;h1 style=&quot;font-size: 30px;&quot;&gt;&lt;span style=&quot;font-size: 30px;&quot;&gt;Диаграмма&amp;nbsp;последовательности&lt;/span&gt;&lt;/h1&gt;" style="text;html=1;strokeColor=#FF8000;fillColor=#FFE6CC;spacing=5;spacingTop=-20;whiteSpace=wrap;overflow=hidden;rounded=0;fontSize=30;align=center;" vertex="1" parent="1">
          <mxGeometry x="880" y="-1150" width="710" height="60" as="geometry" />
        </mxCell>
        <mxCell id="oFbbETFREsKXqKu5l48W-11" value="&lt;h1&gt;&lt;font style=&quot;font-size: 40px;&quot;&gt;Задание&lt;/font&gt;&lt;/h1&gt;&lt;p style=&quot;font-size: 20px;&quot;&gt;&lt;font style=&quot;font-size: 20px;&quot;&gt;Составьте диаграмму последовательности в нотации.&lt;/font&gt;&lt;/p&gt;&lt;p style=&quot;font-size: 20px;&quot;&gt;&lt;font style=&quot;font-size: 20px;&quot;&gt;1. Проанализируйте существующее API, которое включает в себя следующий сценарий: авторизация пользователя для доступа к медиатеке, просмотр медиатеки фильмов и получении информации о нужном фильме и работе пользователя с избранными фильмами.&amp;nbsp;&lt;/font&gt;&lt;/p&gt;&lt;p style=&quot;font-size: 20px;&quot;&gt;&lt;font style=&quot;font-size: 20px;&quot;&gt;2. Вам необходимо построить диаграмму последовательностях для телеканалов по аналогии с сценарием взаимодействия пользователя с фильмами. Справа вы видите начало диаграммы, где уже выделен актор, объекты и обозначены несколько сообщений.&lt;/font&gt;&lt;/p&gt;&lt;p style=&quot;font-size: 20px;&quot;&gt;&lt;font style=&quot;font-size: 20px;&quot;&gt;3. Добавьте на диаграмму следующие действия, которые может выполнить пользователь:&amp;nbsp;&lt;/font&gt;&lt;/p&gt;&lt;ul style=&quot;font-size: 18px;&quot;&gt;&lt;li&gt;авторизоваться в системе&lt;/li&gt;&lt;li&gt;познакомиться с библиотекой телеканалов&lt;/li&gt;&lt;li&gt;прочитать подробную информацию о телеканале&lt;/li&gt;&lt;li&gt;добавить в избранное телеканал (это действие возможно выполнить только с детальной страницы).&lt;/li&gt;&lt;li&gt;посмотреть список избранных телеканалов&lt;/li&gt;&lt;li&gt;удалить телеканал из списка избранного&lt;/li&gt;&lt;/ul&gt;&lt;p style=&quot;font-size: 20px;&quot;&gt;&lt;font style=&quot;font-size: 20px;&quot;&gt;&amp;nbsp;Не забудьте отметить фокус управления.&lt;/font&gt;&lt;/p&gt;&lt;p style=&quot;font-size: 20px;&quot;&gt;&lt;font style=&quot;font-size: 20px;&quot;&gt;4.Если вам не хватает информации в задании, то вы можете ее самостоятельно добавить в виде допущения.&lt;/font&gt;&lt;/p&gt;&lt;p style=&quot;font-size: 20px;&quot;&gt;&lt;i&gt;&lt;font style=&quot;font-size: 20px;&quot;&gt;Помните, что вы всегда можете оставить дополнительную информацию со своими размышлениями ревьюеру в виде пометок. Просто возьмите одну из карточек ниже.&amp;nbsp;&lt;/font&gt;&lt;/i&gt;&lt;/p&gt;&lt;p style=&quot;font-size: 20px;&quot;&gt;&lt;font style=&quot;font-size: 20px;&quot;&gt;5. Когда диаграмма последовательности будет готова, сохраните полученный файл в формате .drawio.&lt;/font&gt;&lt;/p&gt;" style="text;html=1;strokeColor=#82b366;fillColor=#d5e8d4;spacing=5;spacingTop=-20;whiteSpace=wrap;overflow=hidden;rounded=0;fontSize=16;" vertex="1" parent="1">
          <mxGeometry x="70" y="-1130" width="600" height="910" as="geometry" />
        </mxCell>
        <mxCell id="dizJsGSTC7KCC1AmDQVS-11" style="edgeStyle=none;rounded=0;orthogonalLoop=1;jettySize=auto;html=1;endArrow=open;endFill=0;entryX=0.068;entryY=-0.002;entryDx=0;entryDy=0;entryPerimeter=0;dashed=1;exitX=0.458;exitY=0.988;exitDx=0;exitDy=0;exitPerimeter=0;" edge="1" parent="1" source="dizJsGSTC7KCC1AmDQVS-71" target="dizJsGSTC7KCC1AmDQVS-76">
          <mxGeometry relative="1" as="geometry">
            <mxPoint x="920" y="-896" as="targetPoint" />
            <Array as="points">
              <mxPoint x="1071" y="-896" />
            </Array>
            <mxPoint x="1125.13" y="-895.53" as="sourcePoint" />
          </mxGeometry>
        </mxCell>
        <mxCell id="dizJsGSTC7KCC1AmDQVS-12" value="Авторизация пройдена" style="edgeLabel;html=1;align=center;verticalAlign=middle;resizable=0;points=[];" connectable="0" vertex="1" parent="1">
          <mxGeometry x="1040.271570552297" y="-929.9957127655794" as="geometry">
            <mxPoint x="-9" y="26" as="offset" />
          </mxGeometry>
        </mxCell>
        <mxCell id="dizJsGSTC7KCC1AmDQVS-32" style="edgeStyle=none;rounded=0;orthogonalLoop=1;jettySize=auto;html=1;endArrow=blockThin;endFill=1;entryX=0;entryY=1;entryDx=0;entryDy=0;exitX=0.224;exitY=-0.064;exitDx=0;exitDy=0;exitPerimeter=0;" edge="1" parent="1" source="dizJsGSTC7KCC1AmDQVS-76" target="dizJsGSTC7KCC1AmDQVS-86">
          <mxGeometry relative="1" as="geometry">
            <mxPoint x="1132.7099999999998" y="-749.9999999999999" as="targetPoint" />
            <Array as="points">
              <mxPoint x="1056.74" y="-749.87" />
            </Array>
            <mxPoint x="927.8399999999999" y="-749.87" as="sourcePoint" />
          </mxGeometry>
        </mxCell>
        <mxCell id="dizJsGSTC7KCC1AmDQVS-33" value="Открыть библиотеку телеканалов&amp;nbsp;" style="edgeLabel;html=1;align=center;verticalAlign=middle;resizable=0;points=[];" connectable="0" vertex="1" parent="dizJsGSTC7KCC1AmDQVS-32">
          <mxGeometry x="0.0631" y="-3" relative="1" as="geometry">
            <mxPoint x="2" y="-13" as="offset" />
          </mxGeometry>
        </mxCell>
        <mxCell id="dizJsGSTC7KCC1AmDQVS-34" style="edgeStyle=none;rounded=0;orthogonalLoop=1;jettySize=auto;html=1;endArrow=blockThin;endFill=1;entryX=0;entryY=1;entryDx=0;entryDy=0;" edge="1" parent="1" target="dizJsGSTC7KCC1AmDQVS-93">
          <mxGeometry relative="1" as="geometry">
            <mxPoint x="1759.5" y="-741.8699999999999" as="targetPoint" />
            <Array as="points">
              <mxPoint x="1261.47" y="-741.87" />
            </Array>
            <mxPoint x="1132.57" y="-741.87" as="sourcePoint" />
          </mxGeometry>
        </mxCell>
        <mxCell id="dizJsGSTC7KCC1AmDQVS-35" value="Запросить библиотеку телеканалов" style="edgeLabel;html=1;align=center;verticalAlign=middle;resizable=0;points=[];" connectable="0" vertex="1" parent="dizJsGSTC7KCC1AmDQVS-34">
          <mxGeometry x="0.0631" y="-3" relative="1" as="geometry">
            <mxPoint x="35" y="-14" as="offset" />
          </mxGeometry>
        </mxCell>
        <mxCell id="dizJsGSTC7KCC1AmDQVS-38" value="Библиотека телеканалов" style="text;html=1;strokeColor=none;fillColor=none;align=center;verticalAlign=middle;whiteSpace=wrap;rounded=0;" vertex="1" parent="1">
          <mxGeometry x="956" y="-701" width="160" height="30" as="geometry" />
        </mxCell>
        <mxCell id="dizJsGSTC7KCC1AmDQVS-41" style="edgeStyle=none;rounded=0;orthogonalLoop=1;jettySize=auto;html=1;endArrow=open;endFill=0;dashed=1;entryX=0.303;entryY=-0.09;entryDx=0;entryDy=0;entryPerimeter=0;exitX=1;exitY=1;exitDx=0;exitDy=0;" edge="1" parent="1" source="dizJsGSTC7KCC1AmDQVS-86" target="dizJsGSTC7KCC1AmDQVS-76">
          <mxGeometry relative="1" as="geometry">
            <mxPoint x="950" y="-690" as="targetPoint" />
            <Array as="points">
              <mxPoint x="1040" y="-675" />
              <mxPoint x="1010" y="-675" />
            </Array>
            <mxPoint x="1350.3899999999999" y="-675.24" as="sourcePoint" />
          </mxGeometry>
        </mxCell>
        <mxCell id="dizJsGSTC7KCC1AmDQVS-42" style="edgeStyle=none;rounded=0;orthogonalLoop=1;jettySize=auto;html=1;endArrow=blockThin;endFill=1;exitX=0.361;exitY=0.011;exitDx=0;exitDy=0;exitPerimeter=0;entryX=0;entryY=1;entryDx=0;entryDy=0;" edge="1" parent="1" source="dizJsGSTC7KCC1AmDQVS-76" target="dizJsGSTC7KCC1AmDQVS-89">
          <mxGeometry relative="1" as="geometry">
            <mxPoint x="1132.4399999999998" y="-619.9999999999999" as="targetPoint" />
            <Array as="points">
              <mxPoint x="990" y="-621" />
            </Array>
            <mxPoint x="927.5699999999999" y="-619.87" as="sourcePoint" />
          </mxGeometry>
        </mxCell>
        <mxCell id="dizJsGSTC7KCC1AmDQVS-43" value="Открыть подробную &lt;br&gt;информацию о телеканале&amp;nbsp;" style="edgeLabel;html=1;align=center;verticalAlign=middle;resizable=0;points=[];" connectable="0" vertex="1" parent="dizJsGSTC7KCC1AmDQVS-42">
          <mxGeometry x="0.0631" y="-3" relative="1" as="geometry">
            <mxPoint x="-7" y="-18" as="offset" />
          </mxGeometry>
        </mxCell>
        <mxCell id="dizJsGSTC7KCC1AmDQVS-46" style="edgeStyle=none;rounded=0;orthogonalLoop=1;jettySize=auto;html=1;endArrow=blockThin;endFill=1;entryX=0;entryY=1;entryDx=0;entryDy=0;" edge="1" parent="1" target="uruK7SGJ__ZY7MNaphZT-2">
          <mxGeometry relative="1" as="geometry">
            <mxPoint x="1700" y="-620" as="targetPoint" />
            <Array as="points">
              <mxPoint x="1258.9" y="-611.87" />
            </Array>
            <mxPoint x="1150" y="-612" as="sourcePoint" />
          </mxGeometry>
        </mxCell>
        <mxCell id="dizJsGSTC7KCC1AmDQVS-47" value="Запросить подробную информацию о&amp;nbsp; телеканале (id-канала)" style="edgeLabel;html=1;align=center;verticalAlign=middle;resizable=0;points=[];" connectable="0" vertex="1" parent="dizJsGSTC7KCC1AmDQVS-46">
          <mxGeometry x="0.0631" y="-3" relative="1" as="geometry">
            <mxPoint x="-4" y="-12" as="offset" />
          </mxGeometry>
        </mxCell>
        <mxCell id="dizJsGSTC7KCC1AmDQVS-48" style="edgeStyle=none;rounded=0;orthogonalLoop=1;jettySize=auto;html=1;endArrow=open;endFill=0;dashed=1;entryX=0.839;entryY=-0.019;entryDx=0;entryDy=0;entryPerimeter=0;exitX=1;exitY=1;exitDx=0;exitDy=0;" edge="1" parent="1" source="uruK7SGJ__ZY7MNaphZT-2">
          <mxGeometry relative="1" as="geometry">
            <mxPoint x="1148.38" y="-566.575" as="targetPoint" />
            <Array as="points" />
            <mxPoint x="1750" y="-570" as="sourcePoint" />
          </mxGeometry>
        </mxCell>
        <mxCell id="dizJsGSTC7KCC1AmDQVS-69" style="edgeStyle=none;rounded=0;orthogonalLoop=1;jettySize=auto;html=1;endArrow=blockThin;endFill=1;entryX=0;entryY=1;entryDx=0;entryDy=0;" edge="1" parent="1" target="dizJsGSTC7KCC1AmDQVS-96">
          <mxGeometry relative="1" as="geometry">
            <mxPoint x="1755.5099999999998" y="-448.2300000000009" as="targetPoint" />
            <Array as="points">
              <mxPoint x="1408.9" y="-445.87" />
            </Array>
            <mxPoint x="1137.0714285714284" y="-445.8699999999999" as="sourcePoint" />
          </mxGeometry>
        </mxCell>
        <mxCell id="dizJsGSTC7KCC1AmDQVS-70" value="Добавить в избранное телеканал (id-канала)" style="edgeLabel;html=1;align=center;verticalAlign=middle;resizable=0;points=[];" connectable="0" vertex="1" parent="dizJsGSTC7KCC1AmDQVS-69">
          <mxGeometry x="0.0631" y="-3" relative="1" as="geometry">
            <mxPoint x="-4" y="-12" as="offset" />
          </mxGeometry>
        </mxCell>
        <mxCell id="oFbbETFREsKXqKu5l48W-1" style="edgeStyle=none;rounded=0;orthogonalLoop=1;jettySize=auto;html=1;endArrow=blockThin;endFill=1;entryX=0;entryY=1;entryDx=0;entryDy=0;exitX=0;exitY=0;exitDx=0;exitDy=0;" edge="1" parent="1" source="dizJsGSTC7KCC1AmDQVS-76" target="dizJsGSTC7KCC1AmDQVS-71">
          <mxGeometry relative="1" as="geometry">
            <mxPoint x="1128.46" y="-960.4200000000001" as="targetPoint" />
            <Array as="points">
              <mxPoint x="1049" y="-960.7" />
            </Array>
            <mxPoint x="940" y="-970" as="sourcePoint" />
          </mxGeometry>
        </mxCell>
        <mxCell id="oFbbETFREsKXqKu5l48W-2" value="авторизация(логин, пароль)" style="edgeLabel;html=1;align=center;verticalAlign=middle;resizable=0;points=[];" vertex="1" connectable="0" parent="oFbbETFREsKXqKu5l48W-1">
          <mxGeometry x="0.0631" y="-3" relative="1" as="geometry">
            <mxPoint x="-4" y="-12" as="offset" />
          </mxGeometry>
        </mxCell>
        <mxCell id="dizJsGSTC7KCC1AmDQVS-52" value="&lt;span style=&quot;color: rgb(0, 0, 0); font-family: Helvetica; font-size: 12px; font-style: normal; font-variant-ligatures: normal; font-variant-caps: normal; font-weight: 400; letter-spacing: normal; orphans: 2; text-indent: 0px; text-transform: none; widows: 2; word-spacing: 0px; -webkit-text-stroke-width: 0px; background-color: rgb(251, 251, 251); text-decoration-thickness: initial; text-decoration-style: initial; text-decoration-color: initial; float: none; display: inline !important;&quot;&gt;Подробная информация &lt;br&gt;о&amp;nbsp; телеканале&lt;/span&gt;" style="text;whiteSpace=wrap;html=1;align=center;" vertex="1" parent="1">
          <mxGeometry x="954" y="-583" width="146" height="40" as="geometry" />
        </mxCell>
        <mxCell id="dizJsGSTC7KCC1AmDQVS-53" style="edgeStyle=none;rounded=0;orthogonalLoop=1;jettySize=auto;html=1;endArrow=open;endFill=0;dashed=1;entryX=0.441;entryY=0.01;entryDx=0;entryDy=0;entryPerimeter=0;exitX=0.321;exitY=0.906;exitDx=0;exitDy=0;exitPerimeter=0;" edge="1" parent="1" source="dizJsGSTC7KCC1AmDQVS-89" target="dizJsGSTC7KCC1AmDQVS-76">
          <mxGeometry relative="1" as="geometry">
            <mxPoint x="920" y="-550.69" as="targetPoint" />
            <Array as="points">
              <mxPoint x="1040" y="-546" />
              <mxPoint x="1010" y="-546" />
            </Array>
            <mxPoint x="1131" y="-550.69" as="sourcePoint" />
          </mxGeometry>
        </mxCell>
        <mxCell id="dizJsGSTC7KCC1AmDQVS-67" style="edgeStyle=none;rounded=0;orthogonalLoop=1;jettySize=auto;html=1;endArrow=blockThin;endFill=1;entryX=0.664;entryY=1.13;entryDx=0;entryDy=0;exitX=0.528;exitY=0.056;exitDx=0;exitDy=0;exitPerimeter=0;entryPerimeter=0;" edge="1" parent="1" source="dizJsGSTC7KCC1AmDQVS-76" target="dizJsGSTC7KCC1AmDQVS-89">
          <mxGeometry relative="1" as="geometry">
            <mxPoint x="1127.5" y="-463.5" as="targetPoint" />
            <Array as="points" />
            <mxPoint x="919.9999999999999" y="-459.87" as="sourcePoint" />
          </mxGeometry>
        </mxCell>
        <mxCell id="dizJsGSTC7KCC1AmDQVS-68" value="Добавить в избранное телеканал" style="edgeLabel;html=1;align=center;verticalAlign=middle;resizable=0;points=[];" connectable="0" vertex="1" parent="dizJsGSTC7KCC1AmDQVS-67">
          <mxGeometry x="0.0631" y="-3" relative="1" as="geometry">
            <mxPoint x="-10" y="-13" as="offset" />
          </mxGeometry>
        </mxCell>
        <mxCell id="dizJsGSTC7KCC1AmDQVS-15" value="" style="group;movable=1;resizable=1;rotatable=1;deletable=1;editable=1;locked=0;connectable=1;strokeColor=default;" connectable="0" vertex="1" parent="1">
          <mxGeometry x="789" y="-930" width="1031" height="120" as="geometry" />
        </mxCell>
        <mxCell id="dizJsGSTC7KCC1AmDQVS-98" value="" style="endArrow=none;html=1;rounded=0;exitX=0;exitY=0.5;exitDx=0;exitDy=0;entryX=1;entryY=0.5;entryDx=0;entryDy=0;" edge="1" parent="dizJsGSTC7KCC1AmDQVS-15" source="dizJsGSTC7KCC1AmDQVS-16" target="dizJsGSTC7KCC1AmDQVS-16">
          <mxGeometry width="50" height="50" relative="1" as="geometry">
            <mxPoint x="332.2111111111111" y="230" as="sourcePoint" />
            <mxPoint x="395.8530864197531" y="180" as="targetPoint" />
          </mxGeometry>
        </mxCell>
        <mxCell id="dizJsGSTC7KCC1AmDQVS-16" value="" style="group;movable=1;resizable=1;rotatable=1;deletable=1;editable=1;locked=0;connectable=1;" connectable="0" vertex="1" parent="dizJsGSTC7KCC1AmDQVS-15">
          <mxGeometry width="1031" height="120" as="geometry" />
        </mxCell>
        <mxCell id="dizJsGSTC7KCC1AmDQVS-77" value="" style="rounded=0;whiteSpace=wrap;html=1;rotation=90;movable=1;resizable=1;rotatable=1;deletable=1;editable=1;locked=0;connectable=1;" vertex="1" parent="dizJsGSTC7KCC1AmDQVS-16">
          <mxGeometry x="658.96" y="32.04" width="119" height="20" as="geometry" />
        </mxCell>
        <mxCell id="dizJsGSTC7KCC1AmDQVS-20" value="alt" style="rounded=0;whiteSpace=wrap;html=1;" vertex="1" parent="dizJsGSTC7KCC1AmDQVS-16">
          <mxGeometry width="76.37037037037037" height="20" as="geometry" />
        </mxCell>
        <mxCell id="dizJsGSTC7KCC1AmDQVS-21" value="[пользователь&amp;nbsp;&lt;br&gt;авторизован]" style="text;html=1;strokeColor=none;fillColor=none;align=center;verticalAlign=middle;whiteSpace=wrap;rounded=0;" vertex="1" parent="dizJsGSTC7KCC1AmDQVS-16">
          <mxGeometry x="25.367901234567903" y="20" width="76.37037037037037" height="30" as="geometry" />
        </mxCell>
        <mxCell id="dizJsGSTC7KCC1AmDQVS-29" value="Пользователь не найден" style="edgeLabel;html=1;align=center;verticalAlign=middle;resizable=0;points=[];" connectable="0" vertex="1" parent="dizJsGSTC7KCC1AmDQVS-16">
          <mxGeometry x="551.9952089375532" y="60.004287234420644" as="geometry">
            <mxPoint x="-9" y="26" as="offset" />
          </mxGeometry>
        </mxCell>
        <mxCell id="dizJsGSTC7KCC1AmDQVS-31" value="Авторизация не пройдена" style="edgeLabel;html=1;align=center;verticalAlign=middle;resizable=0;points=[];" connectable="0" vertex="1" parent="dizJsGSTC7KCC1AmDQVS-16">
          <mxGeometry x="251.57607313508413" y="80.00428723442064" as="geometry">
            <mxPoint x="-9" y="26" as="offset" />
          </mxGeometry>
        </mxCell>
        <mxCell id="dizJsGSTC7KCC1AmDQVS-71" value="" style="rounded=0;whiteSpace=wrap;html=1;rotation=90;movable=1;resizable=1;rotatable=1;deletable=1;editable=1;locked=0;connectable=1;" vertex="1" parent="dizJsGSTC7KCC1AmDQVS-16">
          <mxGeometry x="277.9" y="31.1" width="144.4" height="20" as="geometry" />
        </mxCell>
        <mxCell id="dizJsGSTC7KCC1AmDQVS-28" style="edgeStyle=none;rounded=0;orthogonalLoop=1;jettySize=auto;html=1;endArrow=open;endFill=0;entryX=0.913;entryY=-0.015;entryDx=0;entryDy=0;dashed=1;exitX=1;exitY=1;exitDx=0;exitDy=0;entryPerimeter=0;" edge="1" parent="dizJsGSTC7KCC1AmDQVS-16" source="dizJsGSTC7KCC1AmDQVS-77" target="dizJsGSTC7KCC1AmDQVS-71">
          <mxGeometry relative="1" as="geometry">
            <mxPoint x="446.76666666666665" y="90.00000000000011" as="targetPoint" />
            <Array as="points" />
            <mxPoint x="703.1038148148149" y="90.10000000000002" as="sourcePoint" />
          </mxGeometry>
        </mxCell>
        <mxCell id="dizJsGSTC7KCC1AmDQVS-10" value="Пользователь найден" style="edgeLabel;html=1;align=center;verticalAlign=middle;resizable=0;points=[];" connectable="0" vertex="1" parent="dizJsGSTC7KCC1AmDQVS-16">
          <mxGeometry x="551.9952089375532" y="0.004287234420644381" as="geometry">
            <mxPoint x="-9" y="26" as="offset" />
          </mxGeometry>
        </mxCell>
        <mxCell id="dizJsGSTC7KCC1AmDQVS-8" style="edgeStyle=none;rounded=0;orthogonalLoop=1;jettySize=auto;html=1;endArrow=open;endFill=0;dashed=1;exitX=0.434;exitY=1.073;exitDx=0;exitDy=0;exitPerimeter=0;entryX=0.447;entryY=0.103;entryDx=0;entryDy=0;entryPerimeter=0;" edge="1" parent="dizJsGSTC7KCC1AmDQVS-16" source="dizJsGSTC7KCC1AmDQVS-77" target="dizJsGSTC7KCC1AmDQVS-71">
          <mxGeometry relative="1" as="geometry">
            <mxPoint x="455" y="34" as="targetPoint" />
            <Array as="points">
              <mxPoint x="501" y="34" />
            </Array>
            <mxPoint x="357" y="-7" as="sourcePoint" />
          </mxGeometry>
        </mxCell>
        <mxCell id="dizJsGSTC7KCC1AmDQVS-1" style="edgeStyle=none;rounded=0;orthogonalLoop=1;jettySize=auto;html=1;endArrow=blockThin;endFill=1;exitX=0.093;exitY=0.011;exitDx=0;exitDy=0;exitPerimeter=0;entryX=0;entryY=1;entryDx=0;entryDy=0;" edge="1" parent="dizJsGSTC7KCC1AmDQVS-16" source="dizJsGSTC7KCC1AmDQVS-71" target="dizJsGSTC7KCC1AmDQVS-77">
          <mxGeometry relative="1" as="geometry">
            <mxPoint x="695.9999999999998" y="-16" as="targetPoint" />
            <Array as="points" />
            <mxPoint x="361" y="-17" as="sourcePoint" />
          </mxGeometry>
        </mxCell>
        <mxCell id="dizJsGSTC7KCC1AmDQVS-2" value="Авторизация(логин, пароль)" style="edgeLabel;html=1;align=center;verticalAlign=middle;resizable=0;points=[];" connectable="0" vertex="1" parent="dizJsGSTC7KCC1AmDQVS-1">
          <mxGeometry x="0.0981" y="-1" relative="1" as="geometry">
            <mxPoint x="-6" y="-9" as="offset" />
          </mxGeometry>
        </mxCell>
        <mxCell id="dizJsGSTC7KCC1AmDQVS-76" value="" style="rounded=0;whiteSpace=wrap;html=1;rotation=90;movable=1;resizable=1;rotatable=1;deletable=1;editable=1;locked=0;connectable=1;" vertex="1" parent="1">
          <mxGeometry x="450" y="-500" width="940" height="20" as="geometry" />
        </mxCell>
        <mxCell id="dizJsGSTC7KCC1AmDQVS-81" style="edgeStyle=none;rounded=0;orthogonalLoop=1;jettySize=auto;html=1;endArrow=open;endFill=0;dashed=1;exitX=1;exitY=1;exitDx=0;exitDy=0;entryX=0.795;entryY=-0.052;entryDx=0;entryDy=0;entryPerimeter=0;" edge="1" parent="1" source="dizJsGSTC7KCC1AmDQVS-96">
          <mxGeometry relative="1" as="geometry">
            <mxPoint x="1148.54" y="-403.875" as="targetPoint" />
            <Array as="points" />
            <mxPoint x="1710" y="-410" as="sourcePoint" />
          </mxGeometry>
        </mxCell>
        <mxCell id="dizJsGSTC7KCC1AmDQVS-82" value="Запись в избранное сделана" style="text;html=1;strokeColor=none;fillColor=none;align=center;verticalAlign=middle;whiteSpace=wrap;rounded=0;" vertex="1" parent="1">
          <mxGeometry x="1202" y="-427" width="240" height="30" as="geometry" />
        </mxCell>
        <mxCell id="dizJsGSTC7KCC1AmDQVS-83" value="Добавление в избранное &lt;br&gt;успешно" style="text;html=1;strokeColor=none;fillColor=none;align=center;verticalAlign=middle;whiteSpace=wrap;rounded=0;" vertex="1" parent="1">
          <mxGeometry x="913.27" y="-416" width="240" height="30" as="geometry" />
        </mxCell>
        <mxCell id="dizJsGSTC7KCC1AmDQVS-84" style="edgeStyle=none;rounded=0;orthogonalLoop=1;jettySize=auto;html=1;endArrow=open;endFill=0;dashed=1;exitX=1;exitY=1;exitDx=0;exitDy=0;entryX=0.612;entryY=-0.17;entryDx=0;entryDy=0;entryPerimeter=0;" edge="1" parent="1" source="dizJsGSTC7KCC1AmDQVS-89" target="dizJsGSTC7KCC1AmDQVS-76">
          <mxGeometry relative="1" as="geometry">
            <mxPoint x="930" y="-390" as="targetPoint" />
            <Array as="points" />
            <mxPoint x="1127.5" y="-388.5" as="sourcePoint" />
          </mxGeometry>
        </mxCell>
        <mxCell id="dizJsGSTC7KCC1AmDQVS-85" value=":ТВ-каналы" style="shape=umlLifeline;perimeter=lifelinePerimeter;whiteSpace=wrap;html=1;container=0;collapsible=0;recursiveResize=0;outlineConnect=0;" vertex="1" parent="1">
          <mxGeometry x="1710" y="-1060" width="111.5" height="1060" as="geometry" />
        </mxCell>
        <mxCell id="dizJsGSTC7KCC1AmDQVS-86" value="" style="rounded=0;whiteSpace=wrap;html=1;rotation=90;movable=1;resizable=1;rotatable=1;deletable=1;editable=1;locked=0;connectable=1;" vertex="1" parent="1">
          <mxGeometry x="1102.5" y="-722.5" width="75" height="20" as="geometry" />
        </mxCell>
        <mxCell id="dizJsGSTC7KCC1AmDQVS-89" value="" style="rounded=0;whiteSpace=wrap;html=1;rotation=90;movable=1;resizable=1;rotatable=1;deletable=1;editable=1;locked=0;connectable=1;" vertex="1" parent="1">
          <mxGeometry x="1019.63" y="-513.12" width="236.75" height="20" as="geometry" />
        </mxCell>
        <mxCell id="dizJsGSTC7KCC1AmDQVS-90" value="Подробная информация о телеканале" style="text;html=1;strokeColor=none;fillColor=none;align=center;verticalAlign=middle;whiteSpace=wrap;rounded=0;" vertex="1" parent="1">
          <mxGeometry x="1372" y="-591" width="220" height="30" as="geometry" />
        </mxCell>
        <mxCell id="dizJsGSTC7KCC1AmDQVS-36" style="edgeStyle=none;rounded=0;orthogonalLoop=1;jettySize=auto;html=1;endArrow=open;endFill=0;dashed=1;entryX=0.676;entryY=-0.044;entryDx=0;entryDy=0;entryPerimeter=0;exitX=1;exitY=1;exitDx=0;exitDy=0;" edge="1" parent="1" source="dizJsGSTC7KCC1AmDQVS-93" target="dizJsGSTC7KCC1AmDQVS-86">
          <mxGeometry relative="1" as="geometry">
            <mxPoint x="1160.0000000000002" y="-699.3249999999998" as="targetPoint" />
            <Array as="points" />
            <mxPoint x="1770.1600000000005" y="-699.9999999999999" as="sourcePoint" />
          </mxGeometry>
        </mxCell>
        <mxCell id="dizJsGSTC7KCC1AmDQVS-93" value="" style="rounded=0;whiteSpace=wrap;html=1;rotation=90;movable=1;resizable=1;rotatable=1;deletable=1;editable=1;locked=0;connectable=1;" vertex="1" parent="1">
          <mxGeometry x="1741.56" y="-729.6800000000001" width="46.88" height="20" as="geometry" />
        </mxCell>
        <mxCell id="dizJsGSTC7KCC1AmDQVS-96" value="" style="rounded=0;whiteSpace=wrap;html=1;rotation=90;fillColor=default;" vertex="1" parent="1">
          <mxGeometry x="1484.4" y="-433.63" width="41.21" height="19" as="geometry" />
        </mxCell>
        <mxCell id="dizJsGSTC7KCC1AmDQVS-39" value="Библиотека телеканалов" style="text;html=1;strokeColor=none;fillColor=none;align=center;verticalAlign=middle;whiteSpace=wrap;rounded=0;" vertex="1" parent="1">
          <mxGeometry x="1421" y="-731" width="160" height="30" as="geometry" />
        </mxCell>
        <mxCell id="dizJsGSTC7KCC1AmDQVS-101" style="edgeStyle=none;rounded=0;orthogonalLoop=1;jettySize=auto;html=1;endArrow=blockThin;endFill=1;entryX=0;entryY=1;entryDx=0;entryDy=0;" edge="1" parent="1" target="dizJsGSTC7KCC1AmDQVS-126">
          <mxGeometry relative="1" as="geometry">
            <mxPoint x="1120" y="-340" as="targetPoint" />
            <Array as="points">
              <mxPoint x="1080" y="-340" />
            </Array>
            <mxPoint x="930" y="-340" as="sourcePoint" />
          </mxGeometry>
        </mxCell>
        <mxCell id="dizJsGSTC7KCC1AmDQVS-102" value="Посмотреть список избранных&amp;nbsp;&lt;br&gt;телеканалов" style="edgeLabel;html=1;align=center;verticalAlign=middle;resizable=0;points=[];" connectable="0" vertex="1" parent="dizJsGSTC7KCC1AmDQVS-101">
          <mxGeometry x="0.0631" y="-3" relative="1" as="geometry">
            <mxPoint x="-7" y="-23" as="offset" />
          </mxGeometry>
        </mxCell>
        <mxCell id="dizJsGSTC7KCC1AmDQVS-103" style="edgeStyle=none;rounded=0;orthogonalLoop=1;jettySize=auto;html=1;endArrow=open;endFill=0;dashed=1;exitX=1;exitY=1;exitDx=0;exitDy=0;entryX=0.74;entryY=-0.028;entryDx=0;entryDy=0;entryPerimeter=0;" edge="1" parent="1" source="dizJsGSTC7KCC1AmDQVS-126" target="dizJsGSTC7KCC1AmDQVS-76">
          <mxGeometry relative="1" as="geometry">
            <mxPoint x="930" y="-290" as="targetPoint" />
            <Array as="points" />
            <mxPoint x="1128" y="-288" as="sourcePoint" />
          </mxGeometry>
        </mxCell>
        <mxCell id="dizJsGSTC7KCC1AmDQVS-104" style="edgeStyle=none;rounded=0;orthogonalLoop=1;jettySize=auto;html=1;endArrow=blockThin;endFill=1;entryX=0;entryY=1;entryDx=0;entryDy=0;exitX=0;exitY=0;exitDx=0;exitDy=0;" edge="1" parent="1" source="dizJsGSTC7KCC1AmDQVS-126" target="dizJsGSTC7KCC1AmDQVS-125">
          <mxGeometry relative="1" as="geometry">
            <mxPoint x="1520.27" y="-340" as="targetPoint" />
            <Array as="points">
              <mxPoint x="1425.17" y="-339.87" />
            </Array>
            <mxPoint x="1153.27" y="-340" as="sourcePoint" />
          </mxGeometry>
        </mxCell>
        <mxCell id="dizJsGSTC7KCC1AmDQVS-105" value="Запросить список избранных телеканалов пользователя" style="edgeLabel;html=1;align=center;verticalAlign=middle;resizable=0;points=[];" connectable="0" vertex="1" parent="dizJsGSTC7KCC1AmDQVS-104">
          <mxGeometry x="0.0631" y="-3" relative="1" as="geometry">
            <mxPoint x="-4" y="-13" as="offset" />
          </mxGeometry>
        </mxCell>
        <mxCell id="dizJsGSTC7KCC1AmDQVS-30" style="edgeStyle=none;rounded=0;orthogonalLoop=1;jettySize=auto;html=1;endArrow=open;endFill=0;dashed=1;exitX=1;exitY=1;exitDx=0;exitDy=0;entryX=0.154;entryY=0;entryDx=0;entryDy=0;entryPerimeter=0;" edge="1" parent="1" source="dizJsGSTC7KCC1AmDQVS-71" target="dizJsGSTC7KCC1AmDQVS-76">
          <mxGeometry relative="1" as="geometry">
            <mxPoint x="930" y="-820" as="targetPoint" />
            <Array as="points" />
            <mxPoint x="1220.4162222222221" y="-820.2999999999998" as="sourcePoint" />
          </mxGeometry>
        </mxCell>
        <mxCell id="dizJsGSTC7KCC1AmDQVS-27" value="[иначе]" style="text;html=1;strokeColor=none;fillColor=none;align=center;verticalAlign=middle;whiteSpace=wrap;rounded=0;movable=1;resizable=1;rotatable=1;deletable=1;editable=1;locked=0;connectable=1;" vertex="1" parent="1">
          <mxGeometry x="806.458024691358" y="-852" width="76.37037037037037" height="20" as="geometry" />
        </mxCell>
        <mxCell id="dizJsGSTC7KCC1AmDQVS-125" value="" style="rounded=0;whiteSpace=wrap;html=1;rotation=90;movable=1;resizable=1;rotatable=1;deletable=1;editable=1;locked=0;connectable=1;" vertex="1" parent="1">
          <mxGeometry x="1420.36" y="-266.04" width="170.79" height="20" as="geometry" />
        </mxCell>
        <mxCell id="dizJsGSTC7KCC1AmDQVS-126" value="" style="rounded=0;whiteSpace=wrap;html=1;rotation=90;movable=1;resizable=1;rotatable=1;deletable=1;editable=1;locked=0;connectable=1;" vertex="1" parent="1">
          <mxGeometry x="1100" y="-312" width="75" height="20" as="geometry" />
        </mxCell>
        <mxCell id="dizJsGSTC7KCC1AmDQVS-127" style="edgeStyle=none;rounded=0;orthogonalLoop=1;jettySize=auto;html=1;endArrow=open;endFill=0;dashed=1;exitX=0.997;exitY=0.973;exitDx=0;exitDy=0;entryX=0.616;entryY=-0.081;entryDx=0;entryDy=0;entryPerimeter=0;exitPerimeter=0;" edge="1" parent="1" source="dizJsGSTC7KCC1AmDQVS-128" target="dizJsGSTC7KCC1AmDQVS-126">
          <mxGeometry relative="1" as="geometry">
            <mxPoint x="1140" y="-301" as="targetPoint" />
            <Array as="points" />
            <mxPoint x="1746" y="-303" as="sourcePoint" />
          </mxGeometry>
        </mxCell>
        <mxCell id="dizJsGSTC7KCC1AmDQVS-128" value="Высласть список избранных телеканалов пользователя" style="text;html=1;align=center;verticalAlign=middle;resizable=0;points=[];autosize=1;strokeColor=none;fillColor=none;" vertex="1" parent="1">
          <mxGeometry x="1157" y="-322" width="340" height="30" as="geometry" />
        </mxCell>
        <mxCell id="dizJsGSTC7KCC1AmDQVS-129" value="Список избранных&amp;nbsp;&lt;br style=&quot;border-color: var(--border-color); font-size: 11px;&quot;&gt;&lt;span style=&quot;font-size: 11px; background-color: rgb(255, 255, 255);&quot;&gt;телеканалов&lt;/span&gt;" style="text;html=1;align=center;verticalAlign=middle;resizable=0;points=[];autosize=1;strokeColor=none;fillColor=none;" vertex="1" parent="1">
          <mxGeometry x="969" y="-300" width="130" height="40" as="geometry" />
        </mxCell>
        <mxCell id="dizJsGSTC7KCC1AmDQVS-130" value="" style="rounded=0;whiteSpace=wrap;html=1;rotation=90;movable=1;resizable=1;rotatable=1;deletable=1;editable=1;locked=0;connectable=1;" vertex="1" parent="1">
          <mxGeometry x="1107.31" y="-189.44" width="61.38" height="20" as="geometry" />
        </mxCell>
        <mxCell id="dizJsGSTC7KCC1AmDQVS-131" style="edgeStyle=none;rounded=0;orthogonalLoop=1;jettySize=auto;html=1;endArrow=open;endFill=0;dashed=1;exitX=1;exitY=1;exitDx=0;exitDy=0;entryX=0.638;entryY=-0.003;entryDx=0;entryDy=0;entryPerimeter=0;" edge="1" parent="1" source="dizJsGSTC7KCC1AmDQVS-125" target="dizJsGSTC7KCC1AmDQVS-130">
          <mxGeometry relative="1" as="geometry">
            <mxPoint x="1148.005" y="-176.75499999999988" as="targetPoint" />
            <Array as="points" />
            <mxPoint x="1755.755" y="-176.34500000000025" as="sourcePoint" />
          </mxGeometry>
        </mxCell>
        <mxCell id="dizJsGSTC7KCC1AmDQVS-132" style="edgeStyle=none;rounded=0;orthogonalLoop=1;jettySize=auto;html=1;endArrow=open;endFill=0;dashed=1;exitX=1;exitY=1;exitDx=0;exitDy=0;entryX=0.864;entryY=-0.023;entryDx=0;entryDy=0;entryPerimeter=0;" edge="1" parent="1" source="dizJsGSTC7KCC1AmDQVS-130" target="dizJsGSTC7KCC1AmDQVS-76">
          <mxGeometry relative="1" as="geometry">
            <mxPoint x="932" y="-149" as="targetPoint" />
            <Array as="points" />
            <mxPoint x="1129" y="-149" as="sourcePoint" />
          </mxGeometry>
        </mxCell>
        <mxCell id="dizJsGSTC7KCC1AmDQVS-133" style="edgeStyle=none;rounded=0;orthogonalLoop=1;jettySize=auto;html=1;endArrow=blockThin;endFill=1;entryX=0;entryY=1;entryDx=0;entryDy=0;exitX=0.798;exitY=-0.005;exitDx=0;exitDy=0;exitPerimeter=0;" edge="1" parent="1" source="dizJsGSTC7KCC1AmDQVS-76" target="dizJsGSTC7KCC1AmDQVS-130">
          <mxGeometry relative="1" as="geometry">
            <mxPoint x="1126" y="-234.89" as="targetPoint" />
            <Array as="points" />
            <mxPoint x="928" y="-234.89" as="sourcePoint" />
          </mxGeometry>
        </mxCell>
        <mxCell id="dizJsGSTC7KCC1AmDQVS-134" value="Удалить телеканал&lt;br&gt;&amp;nbsp;из списка избранных&amp;nbsp;" style="edgeLabel;html=1;align=center;verticalAlign=middle;resizable=0;points=[];" connectable="0" vertex="1" parent="dizJsGSTC7KCC1AmDQVS-133">
          <mxGeometry x="0.0631" y="-3" relative="1" as="geometry">
            <mxPoint x="-3" y="-18" as="offset" />
          </mxGeometry>
        </mxCell>
        <mxCell id="dizJsGSTC7KCC1AmDQVS-139" style="edgeStyle=none;rounded=0;orthogonalLoop=1;jettySize=auto;html=1;endArrow=blockThin;endFill=1;exitX=0;exitY=0;exitDx=0;exitDy=0;entryX=0.769;entryY=1;entryDx=0;entryDy=0;entryPerimeter=0;" edge="1" parent="1" source="dizJsGSTC7KCC1AmDQVS-130" target="dizJsGSTC7KCC1AmDQVS-125">
          <mxGeometry relative="1" as="geometry">
            <mxPoint x="1358" y="-210" as="targetPoint" />
            <Array as="points" />
            <mxPoint x="1160" y="-210" as="sourcePoint" />
          </mxGeometry>
        </mxCell>
        <mxCell id="dizJsGSTC7KCC1AmDQVS-141" value="Удаление из избранного&lt;br&gt;успешно" style="edgeLabel;html=1;align=center;verticalAlign=middle;resizable=0;points=[];" connectable="0" vertex="1" parent="1">
          <mxGeometry x="1031.0018010565932" y="-165.00294581374555" as="geometry" />
        </mxCell>
        <mxCell id="dizJsGSTC7KCC1AmDQVS-142" value="Удалить телеканал (id-канала) из списка избранных" style="text;html=1;strokeColor=none;fillColor=none;align=center;verticalAlign=middle;whiteSpace=wrap;rounded=0;" vertex="1" parent="1">
          <mxGeometry x="1179.5" y="-241" width="249" height="30" as="geometry" />
        </mxCell>
        <mxCell id="dizJsGSTC7KCC1AmDQVS-143" value="Высласть список избранных телеканалов пользователя с учетом изменений" style="text;html=1;strokeColor=none;fillColor=none;align=center;verticalAlign=middle;whiteSpace=wrap;rounded=0;" vertex="1" parent="1">
          <mxGeometry x="1156.5" y="-200" width="309" height="30" as="geometry" />
        </mxCell>
        <mxCell id="dizJsGSTC7KCC1AmDQVS-145" value="loop" style="rounded=0;whiteSpace=wrap;html=1;" vertex="1" parent="1">
          <mxGeometry x="710" y="-980" width="76.37037037037037" height="20" as="geometry" />
        </mxCell>
        <mxCell id="dizJsGSTC7KCC1AmDQVS-147" value="[пока ответ == иначе]" style="text;html=1;strokeColor=none;fillColor=none;align=center;verticalAlign=middle;whiteSpace=wrap;rounded=0;" vertex="1" parent="1">
          <mxGeometry x="786.37" y="-975" width="73.63" height="30" as="geometry" />
        </mxCell>
        <mxCell id="uruK7SGJ__ZY7MNaphZT-2" value="" style="rounded=0;whiteSpace=wrap;html=1;rotation=90;movable=1;resizable=1;rotatable=1;deletable=1;editable=1;locked=0;connectable=1;" vertex="1" parent="1">
          <mxGeometry x="1741.56" y="-599" width="46.88" height="20" as="geometry" />
        </mxCell>
      </root>
    </mxGraphModel>
  </diagram>
</mxfile>
